HIERARCHY
ROOT mixamorig:Hips
{
	OFFSET 0.000000 92.661156 0.000000
	CHANNELS 6 Xposition Yposition Zposition Xrotation Yrotation Zrotation
	JOINT mixamorig:Spine
	{
		OFFSET 0.000000 8.600700 -0.340700
		CHANNELS 3 Xrotation Yrotation Zrotation
		JOINT mixamorig:Spine1
		{
			OFFSET 0.000000 10.034225 -0.397508
			CHANNELS 3 Xrotation Yrotation Zrotation
			JOINT mixamorig:Spine2
			{
				OFFSET 0.000000 11.467606 -0.454292
				CHANNELS 3 Xrotation Yrotation Zrotation
				JOINT mixamorig:Neck
				{
					OFFSET 0.000000 12.901077 -0.511079
					CHANNELS 3 Xrotation Yrotation Zrotation
					JOINT mixamorig:Head
					{
						OFFSET 0.000000 17.330292 0.169800
						CHANNELS 3 Xrotation Yrotation Zrotation
						JOINT mixamorig:HeadTop_End
						{
							OFFSET 0.000000 25.253006 0.449800
							CHANNELS 3 Xrotation Yrotation Zrotation
							End Site
							{
								OFFSET 0.000000 25.257004 0.000000
							}
						}
					}
				}
				JOINT mixamorig:LeftShoulder
				{
					OFFSET 7.576400 10.581253 -0.470819
					CHANNELS 3 Xrotation Yrotation Zrotation
					JOINT mixamorig:LeftArm
					{
						OFFSET 14.492776 -4.330338 0.080513
						CHANNELS 3 Xrotation Yrotation Zrotation
						JOINT mixamorig:LeftForeArm
						{
							OFFSET 24.772102 0.000000 0.000001
							CHANNELS 3 Xrotation Yrotation Zrotation
							JOINT mixamorig:LeftHand
							{
								OFFSET 30.634605 0.000000 0.000001
								CHANNELS 3 Xrotation Yrotation Zrotation
								JOINT mixamorig:LeftHandThumb1
								{
									OFFSET 3.322998 -1.480820 3.892684
									CHANNELS 3 Xrotation Yrotation Zrotation
									JOINT mixamorig:LeftHandThumb2
									{
										OFFSET 3.301682 -1.906227 1.906227
										CHANNELS 3 Xrotation Yrotation Zrotation
										JOINT mixamorig:LeftHandThumb3
										{
											OFFSET 4.058510 -2.343185 2.343183
											CHANNELS 3 Xrotation Yrotation Zrotation
											JOINT mixamorig:LeftHandThumb4
											{
												OFFSET 3.530258 -2.038193 2.038196
												CHANNELS 3 Xrotation Yrotation Zrotation
												End Site
												{
													OFFSET 3.519913 -2.038574 2.055655
												}
											}
										}
									}
								}
								JOINT mixamorig:LeftHandIndex1
								{
									OFFSET 10.849342 -0.216278 3.292529
									CHANNELS 3 Xrotation Yrotation Zrotation
									JOINT mixamorig:LeftHandIndex2
									{
										OFFSET 4.927605 0.000000 0.000000
										CHANNELS 3 Xrotation Yrotation Zrotation
										JOINT mixamorig:LeftHandIndex3
										{
											OFFSET 4.929016 0.000000 0.000000
											CHANNELS 3 Xrotation Yrotation Zrotation
											JOINT mixamorig:LeftHandIndex4
											{
												OFFSET 3.938446 0.000000 0.000000
												CHANNELS 3 Xrotation Yrotation Zrotation
												End Site
												{
													OFFSET 3.938400 -0.000778 -0.018584
												}
											}
										}
									}
								}
								JOINT mixamorig:LeftHandMiddle1
								{
									OFFSET 10.448532 0.000000 0.000000
									CHANNELS 3 Xrotation Yrotation Zrotation
									JOINT mixamorig:LeftHandMiddle2
									{
										OFFSET 5.230713 0.000000 0.000000
										CHANNELS 3 Xrotation Yrotation Zrotation
										JOINT mixamorig:LeftHandMiddle3
										{
											OFFSET 5.101120 0.000000 0.000000
											CHANNELS 3 Xrotation Yrotation Zrotation
											JOINT mixamorig:LeftHandMiddle4
											{
												OFFSET 4.284767 0.000000 0.000000
												CHANNELS 3 Xrotation Yrotation Zrotation
												End Site
												{
													OFFSET 4.284698 0.001328 0.023863
												}
											}
										}
									}
								}
								JOINT mixamorig:LeftHandRing1
								{
									OFFSET 10.036697 -0.428497 -3.199690
									CHANNELS 3 Xrotation Yrotation Zrotation
									JOINT mixamorig:LeftHandRing2
									{
										OFFSET 5.001900 0.000000 0.000000
										CHANNELS 3 Xrotation Yrotation Zrotation
										JOINT mixamorig:LeftHandRing3
										{
											OFFSET 4.631409 0.000000 0.000000
											CHANNELS 3 Xrotation Yrotation Zrotation
											JOINT mixamorig:LeftHandRing4
											{
												OFFSET 3.923203 0.000000 0.000000
												CHANNELS 3 Xrotation Yrotation Zrotation
												End Site
												{
													OFFSET 3.923203 -0.000458 -0.006183
												}
											}
										}
									}
								}
								JOINT mixamorig:LeftHandPinky1
								{
									OFFSET 8.103996 -0.005463 -4.958908
									CHANNELS 3 Xrotation Yrotation Zrotation
									JOINT mixamorig:LeftHandPinky2
									{
										OFFSET 5.207626 0.000000 0.000000
										CHANNELS 3 Xrotation Yrotation Zrotation
										JOINT mixamorig:LeftHandPinky3
										{
											OFFSET 4.089874 0.000000 0.000000
											CHANNELS 3 Xrotation Yrotation Zrotation
											JOINT mixamorig:LeftHandPinky4
											{
												OFFSET 3.375877 0.000000 0.000000
												CHANNELS 3 Xrotation Yrotation Zrotation
												End Site
												{
													OFFSET 3.375610 -0.004654 -0.043049
												}
											}
										}
									}
								}
							}
						}
					}
				}
				JOINT mixamorig:RightShoulder
				{
					OFFSET -7.576400 10.581161 -0.551379
					CHANNELS 3 Xrotation Yrotation Zrotation
					JOINT mixamorig:RightArm
					{
						OFFSET -14.492803 -4.330246 -0.080524
						CHANNELS 3 Xrotation Yrotation Zrotation
						JOINT mixamorig:RightForeArm
						{
							OFFSET -24.772099 0.000000 0.000001
							CHANNELS 3 Xrotation Yrotation Zrotation
							JOINT mixamorig:RightHand
							{
								OFFSET -30.639809 0.000000 0.000002
								CHANNELS 3 Xrotation Yrotation Zrotation
								JOINT mixamorig:RightHandThumb1
								{
									OFFSET -3.507294 -1.655342 3.790413
									CHANNELS 3 Xrotation Yrotation Zrotation
									JOINT mixamorig:RightHandThumb2
									{
										OFFSET -3.360497 -1.940186 1.940186
										CHANNELS 3 Xrotation Yrotation Zrotation
										JOINT mixamorig:RightHandThumb3
										{
											OFFSET -4.025208 -2.323959 2.323956
											CHANNELS 3 Xrotation Yrotation Zrotation
											JOINT mixamorig:RightHandThumb4
											{
												OFFSET -3.461601 -1.998558 1.998559
												CHANNELS 3 Xrotation Yrotation Zrotation
												End Site
												{
													OFFSET -3.333542 -1.998955 2.205183
												}
											}
										}
									}
								}
								JOINT mixamorig:RightHandIndex1
								{
									OFFSET -11.045464 -0.146271 3.003679
									CHANNELS 3 Xrotation Yrotation Zrotation
									JOINT mixamorig:RightHandIndex2
									{
										OFFSET -5.131828 0.000000 0.000000
										CHANNELS 3 Xrotation Yrotation Zrotation
										JOINT mixamorig:RightHandIndex3
										{
											OFFSET -4.796227 0.000000 0.000000
											CHANNELS 3 Xrotation Yrotation Zrotation
											JOINT mixamorig:RightHandIndex4
											{
												OFFSET -4.077904 0.000000 0.000000
												CHANNELS 3 Xrotation Yrotation Zrotation
												End Site
												{
													OFFSET -4.077896 -0.000061 -0.001699
												}
											}
										}
									}
								}
								JOINT mixamorig:RightHandMiddle1
								{
									OFFSET -10.374084 0.000000 0.000000
									CHANNELS 3 Xrotation Yrotation Zrotation
									JOINT mixamorig:RightHandMiddle2
									{
										OFFSET -5.356903 0.000000 0.000000
										CHANNELS 3 Xrotation Yrotation Zrotation
										JOINT mixamorig:RightHandMiddle3
										{
											OFFSET -5.191803 0.000000 0.000000
											CHANNELS 3 Xrotation Yrotation Zrotation
											JOINT mixamorig:RightHandMiddle4
											{
												OFFSET -4.162704 0.000000 0.000000
												CHANNELS 3 Xrotation Yrotation Zrotation
												End Site
												{
													OFFSET -4.162697 0.000336 0.006692
												}
											}
										}
									}
								}
								JOINT mixamorig:RightHandRing1
								{
									OFFSET -9.630859 -0.277283 -3.149876
									CHANNELS 3 Xrotation Yrotation Zrotation
									JOINT mixamorig:RightHandRing2
									{
										OFFSET -5.180817 0.000000 0.000000
										CHANNELS 3 Xrotation Yrotation Zrotation
										JOINT mixamorig:RightHandRing3
										{
											OFFSET -4.740578 0.000000 0.000000
											CHANNELS 3 Xrotation Yrotation Zrotation
											JOINT mixamorig:RightHandRing4
											{
												OFFSET -4.011124 0.000000 0.000000
												CHANNELS 3 Xrotation Yrotation Zrotation
												End Site
												{
													OFFSET -4.011101 -0.000854 -0.014675
												}
											}
										}
									}
								}
								JOINT mixamorig:RightHandPinky1
								{
									OFFSET -8.537476 -0.025681 -5.717695
									CHANNELS 3 Xrotation Yrotation Zrotation
									JOINT mixamorig:RightHandPinky2
									{
										OFFSET -4.854950 0.000000 0.000000
										CHANNELS 3 Xrotation Yrotation Zrotation
										JOINT mixamorig:RightHandPinky3
										{
											OFFSET -3.856483 0.000000 0.000000
											CHANNELS 3 Xrotation Yrotation Zrotation
											JOINT mixamorig:RightHandPinky4
											{
												OFFSET -3.016380 0.000000 0.000000
												CHANNELS 3 Xrotation Yrotation Zrotation
												End Site
												{
													OFFSET -3.016205 -0.003265 -0.033139
												}
											}
										}
									}
								}
							}
						}
					}
				}
			}
		}
	}
	JOINT mixamorig:LeftUpLeg
	{
		OFFSET 10.333600 -4.771301 0.200300
		CHANNELS 3 Xrotation Yrotation Zrotation
		JOINT mixamorig:LeftLeg
		{
			OFFSET -0.039310 -39.946499 -3.314672
			CHANNELS 3 Xrotation Yrotation Zrotation
			JOINT mixamorig:LeftFoot
			{
				OFFSET 0.039316 -38.752296 -6.562774
				CHANNELS 3 Xrotation Yrotation Zrotation
				JOINT mixamorig:LeftToeBase
				{
					OFFSET 0.252044 -8.829344 16.191711
					CHANNELS 3 Xrotation Yrotation Zrotation
					JOINT mixamorig:LeftToe_End
					{
						OFFSET 0.124490 0.008314 8.117143
						CHANNELS 3 Xrotation Yrotation Zrotation
						End Site
						{
							OFFSET 0.124490 0.008314 8.117143
						}
					}
				}
			}
		}
	}
	JOINT mixamorig:RightUpLeg
	{
		OFFSET -10.333600 -4.771301 0.752800
		CHANNELS 3 Xrotation Yrotation Zrotation
		JOINT mixamorig:RightLeg
		{
			OFFSET 0.039295 -39.946587 -3.844795
			CHANNELS 3 Xrotation Yrotation Zrotation
			JOINT mixamorig:RightFoot
			{
				OFFSET -0.039304 -38.753475 -6.471369
				CHANNELS 3 Xrotation Yrotation Zrotation
				JOINT mixamorig:RightToeBase
				{
					OFFSET -0.251556 -8.826419 16.120266
					CHANNELS 3 Xrotation Yrotation Zrotation
					JOINT mixamorig:RightToe_End
					{
						OFFSET -0.124249 0.009768 8.077740
						CHANNELS 3 Xrotation Yrotation Zrotation
						End Site
						{
							OFFSET -0.124249 0.009768 8.077740
						}
					}
				}
			}
		}
	}
}
MOTION
Frames: 4
Frame Time: 0.033333
-43.858543 81.179634 12.617526 85.021177 72.388797 -70.267825 6.173431 3.235007 1.169958 12.298850 6.433750 2.183000 12.298853 6.433727 2.183004 5.357552 3.576391 10.561689 21.378856 -23.383236 7.487825 0.000000 -0.000000 0.000000 0.295593 -1.987901 -0.948372 8.516301 -8.900426 -76.541292 0.660022 -22.291193 0.250333 46.118431 -10.236078 -12.426532 -16.653296 -14.520449 5.351789 10.276558 27.703027 -13.158402 -0.000013 -0.000001 -0.000011 -0.000000 0.000005 -0.000002 -8.239395 6.206744 4.399296 0.502104 0.721591 -11.696539 -0.000001 0.000004 0.000008 0.000002 0.000000 0.000001 -1.263763 3.903039 -8.576090 0.000942 0.219271 -0.723443 0.000002 0.000005 0.000001 0.000004 0.000002 -0.000001 1.361423 5.580045 -21.961005 -0.601157 -1.138369 -24.929683 -0.000004 0.000012 -0.000004 0.000001 0.000002 -0.000000 6.171169 4.076043 -24.362870 -0.023497 0.114865 -0.283929 -0.000004 -0.000005 0.000002 0.000000 -0.000001 0.000004 2.489841 7.810719 -12.617940 -33.807336 -13.901068 77.320555 -30.925088 77.004543 31.795217 20.525770 -0.258577 6.288636 20.995418 -9.203961 2.738780 2.246382 -1.580583 -3.531007 0.000005 -0.000007 0.000007 0.000001 -0.000001 -0.000002 1.681578 0.272977 15.300110 -0.136134 -0.425266 25.558057 -0.000001 0.000007 0.000003 0.000001 0.000001 0.000000 5.072136 -5.281365 42.464652 -3.678746 3.767529 77.934364 -0.000007 0.000000 0.000002 0.000004 -0.000002 0.000004 -2.048012 -5.358181 37.885434 -1.713825 1.984116 63.146062 -0.000005 -0.000001 0.000004 0.000003 -0.000001 0.000001 -9.456548 -3.145135 36.252223 0.956451 2.069935 53.828349 -0.000001 -0.000002 0.000001 0.000000 -0.000000 -0.000001 -48.077848 10.382105 -9.347631 77.184109 -8.372776 -2.903820 38.266702 60.104579 -16.945467 -23.265224 -1.273686 -7.306382 0.000002 0.000004 0.000003 -74.021854 -1.249618 -29.419086 60.043858 1.387464 2.120014 -6.895272 -20.300108 0.255423 -5.042479 0.032235 -0.022954 0.000000 0.000002 0.000000 
-44.968700 82.731689 12.947893 113.378347 75.303355 -100.751943 5.088935 3.051746 1.620991 10.104646 6.066952 3.128206 10.104642 6.066951 3.128210 8.371590 3.171786 12.711994 19.609328 -26.283241 5.783181 -0.000000 -0.000000 -0.000001 0.267556 -1.849901 -0.147541 9.415585 -8.835880 -78.090345 0.777353 -21.060595 0.279264 45.015123 -10.708931 -17.258008 -15.563138 -14.319573 7.215584 9.994724 27.372203 -12.931589 -0.000003 0.000002 -0.000007 -0.000001 0.000001 0.000001 -8.272454 5.606179 2.991786 0.504453 0.732170 -11.697802 -0.000000 0.000000 0.000006 0.000000 0.000003 -0.000000 -1.385482 3.550093 -9.675514 0.002054 0.210180 -0.894812 -0.000003 0.000001 0.000005 -0.000002 -0.000000 -0.000001 1.591182 6.165047 -21.755192 -0.645726 -1.222091 -25.927185 0.000001 0.000005 -0.000003 -0.000001 0.000002 0.000001 6.046221 3.789369 -23.278342 -0.029718 0.039657 -0.692448 -0.000002 -0.000003 0.000000 0.000001 0.000001 -0.000002 2.563755 6.541067 -11.820814 -37.207459 -18.855034 77.695908 -25.307263 75.441850 26.079938 25.844391 2.895356 6.766991 20.676072 -9.571639 2.753145 2.313834 -1.466998 -3.511653 0.000005 -0.000003 0.000006 0.000002 0.000004 0.000003 1.788010 0.298930 15.245023 -0.145529 -0.404277 25.741591 -0.000002 0.000004 0.000005 0.000000 0.000000 0.000001 5.111593 -5.312942 42.288515 -3.701633 3.772382 78.180989 -0.000004 0.000004 -0.000001 -0.000003 0.000002 -0.000004 -2.066690 -5.322823 37.668060 -1.730384 1.992426 63.600140 -0.000010 -0.000001 0.000000 0.000000 0.000000 0.000001 -9.482322 -3.076077 36.088018 1.033590 2.040688 54.246957 -0.000005 -0.000001 -0.000001 -0.000002 -0.000000 -0.000001 -34.865773 8.034729 -8.534110 67.065054 -7.953649 -2.676744 45.120383 58.266759 -30.489459 -32.320305 3.619207 -15.619056 -0.000002 0.000001 0.000003 -67.679518 -4.978691 -32.504283 56.292251 1.284221 2.027145 -5.677815 -25.195272 1.604175 -5.042381 0.032425 -0.022952 0.000000 0.000003 -0.000000 
-46.474762 84.063667 12.877531 141.374028 72.532852 -130.081581 4.044222 2.774702 1.728235 8.015597 5.500438 3.337005 8.015598 5.500424 3.337013 9.587811 2.386837 14.786154 16.422454 -29.868800 4.230402 -0.000001 0.000000 0.000000 0.397241 -0.770350 0.048615 9.524586 -8.884674 -77.884073 0.934620 -20.375271 0.325225 40.766595 -11.149371 -20.668899 -15.664289 -15.146322 7.804483 10.838449 28.712083 -13.447605 -0.000007 -0.000000 -0.000005 0.000000 0.000007 -0.000000 -8.423004 5.827760 -2.265481 0.506991 0.745497 -11.734175 0.000001 -0.000003 0.000003 -0.000002 -0.000006 0.000002 -1.971778 2.333116 -14.253328 0.002982 0.198985 -1.105594 -0.000001 0.000005 0.000004 0.000001 -0.000006 0.000002 1.206539 5.190097 -23.818560 -0.642753 -1.217333 -25.862870 -0.000001 0.000014 -0.000002 0.000001 -0.000002 -0.000005 5.563925 2.684649 -26.204852 -0.024502 0.080348 -0.471252 -0.000007 -0.000005 0.000005 -0.000001 0.000004 0.000002 2.387583 4.633911 -11.406007 -42.004618 -23.544314 75.796966 -20.131875 73.225297 20.793717 26.862246 3.398000 5.222476 20.355499 -9.938458 2.764185 2.381248 -1.353313 -3.492608 0.000002 -0.000012 0.000004 0.000003 0.000001 -0.000002 1.894496 0.324717 15.189895 -0.155038 -0.383369 25.925149 0.000000 0.000004 0.000005 -0.000001 0.000000 -0.000001 5.150924 -5.344721 42.112402 -3.724585 3.777108 78.427599 -0.000003 0.000002 0.000000 0.000001 0.000000 -0.000002 -2.085082 -5.287240 37.450743 -1.746993 2.000568 64.054224 -0.000006 -0.000000 -0.000003 0.000001 -0.000001 -0.000001 -9.507705 -3.006804 35.923861 1.111247 2.012480 54.665566 -0.000003 -0.000002 -0.000000 -0.000000 0.000000 -0.000001 -25.786676 5.363825 -7.949071 58.874981 -2.289694 -1.565664 33.111009 58.387107 -32.069975 -24.475553 1.528059 -12.500786 -0.000001 0.000001 -0.000003 -63.234622 -8.205700 -35.546914 52.304035 1.109645 1.912070 -3.315949 -30.066561 3.390199 -5.042368 0.032446 -0.022946 0.000000 -0.000001 -0.000000 
-48.659164 84.799118 12.362132 155.379468 67.009866 -145.097779 3.313118 2.455313 1.568199 6.568477 4.853863 2.994186 6.568471 4.853853 2.994188 8.362403 1.094510 16.132675 12.961678 -33.186178 3.204392 0.000001 0.000000 0.000000 0.948849 1.082151 -0.108744 8.909582 -8.753774 -76.442214 1.006600 -21.028013 0.360995 35.249824 -10.241330 -20.215007 -17.960163 -17.098228 5.534834 12.901104 31.424717 -14.657914 -0.000007 0.000001 -0.000004 -0.000001 0.000005 0.000001 -8.467184 6.874237 -10.106089 0.513681 0.778952 -12.057283 -0.000001 -0.000001 0.000004 0.000000 0.000001 0.000000 -3.159270 0.609808 -20.750366 0.001310 0.203052 -1.030534 -0.000002 0.000004 0.000003 0.000001 -0.000001 0.000003 -0.186779 2.415780 -27.049810 -0.551065 -1.042478 -23.773279 0.000001 0.000008 -0.000008 0.000000 -0.000000 -0.000001 4.791244 1.406969 -32.511707 -0.009817 0.032265 -0.731461 -0.000001 -0.000007 0.000007 0.000002 0.000001 -0.000001 2.033740 2.547474 -11.730712 -49.108770 -27.605448 71.654012 -15.676515 70.363905 16.223490 24.448276 2.376626 3.415709 20.033696 -10.304461 2.771873 2.448574 -1.239515 -3.473779 0.000006 -0.000012 0.000007 0.000002 -0.000001 -0.000004 2.001073 0.350246 15.134704 -0.164591 -0.362449 26.108700 -0.000001 0.000005 0.000006 0.000000 -0.000001 0.000001 5.190128 -5.376731 41.936296 -3.747531 3.781739 78.674190 -0.000004 0.000003 0.000000 0.000000 0.000001 -0.000004 -2.103139 -5.251481 37.233448 -1.763687 2.008601 64.508309 -0.000006 -0.000000 0.000001 0.000001 0.000000 0.000001 -9.532676 -2.937379 35.759739 1.189406 1.985283 55.084157 -0.000003 -0.000001 0.000002 0.000000 0.000000 -0.000000 -19.391472 4.394589 -6.344544 49.894703 -1.480676 -1.290142 13.773064 59.140846 -26.082614 -15.853626 0.159183 -7.357995 0.000000 -0.000000 -0.000000 -60.657462 -10.137038 -38.032136 48.955248 0.936085 1.803351 0.123132 -34.974923 5.713163 -5.042377 0.032406 -0.022947 -0.000000 0.000002 -0.000000 
